<svg id="Layer_1" data-name="Layer 1" xmlns="http://www.w3.org/2000/svg" viewBox="0 0 257.75 71.65"><defs><style>.cls-1,.cls-2{fill:#122d62;}.cls-1{fill-rule:evenodd;}</style></defs><title>aade_gr</title><path class="cls-1" d="M82.87,278.78V284L50.38,294.8Zm0,6.49v8.9L43,298.51Zm0,10.11v5l-34-1.27Zm0,6.18v8.94L43.52,300.08Zm0,10.18v.44H62.59L42.34,301Zm-22.78.44H15.14l23.73-11.7ZM14.78,311v-3.11l19.38-6.44Zm0-4.38v-3.83l17.15-1.86Zm0-5V299l17.63.66Zm0-3.78v-4.08l18,4.75Zm68.09-53.72H14.78v41.75L38,298.62l.23.06h.44L42,297.57l40.84-20.13Zm-68.09,48.4V287.2l18.41,10.15Z" transform="translate(-14.78 -244.08)"/><path class="cls-2" d="M132.47,291.65l-1.19-2.82H125.4l-1.18,2.82h-1.49L128.25,279h.29L134,291.65ZM128.31,282l-2.44,5.71h5L128.39,282Z" transform="translate(-14.78 -244.08)"/><polygon class="cls-2" points="123.32 47.67 123.04 47.67 118.97 39.15 120.53 39.15 123.21 45.05 123.27 45.05 125.93 39.15 127.45 39.15 123.32 47.67"/><path class="cls-2" d="M142.89,289.36a2.43,2.43,0,0,1,1.55-2.19v-.06a1.72,1.72,0,0,1-1.34-1.69c0-1.41,1.29-2.42,3.35-2.42a5.88,5.88,0,0,1,2.53.57v1.23a5,5,0,0,0-2.53-.66c-1,0-1.91.53-1.91,1.36s.49,1,1.47,1h1.31v1.1h-1c-1.27,0-1.93.68-1.93,1.51s.73,1.61,2.31,1.61a4.4,4.4,0,0,0,2.7-.91v1.27a5.6,5.6,0,0,1-2.89.74c-2.33,0-3.58-1-3.58-2.48" transform="translate(-14.78 -244.08)"/><path class="cls-2" d="M152,281.21c0,1.51,1.19,2.19,2.72,2.19h1.82v1.12h-2a2.62,2.62,0,0,0-2.1.85,3,3,0,0,0-.72,2,2,2,0,0,0,1,1.82,12.26,12.26,0,0,0,2.75,1.21c1.64.59,2.09,1.08,2.09,1.82a6.19,6.19,0,0,1-1.58,2.61l-1.08-.4a4.69,4.69,0,0,0,1.08-2.05c0-.37-.36-.64-1.55-1-2.88-.85-4.2-1.94-4.2-3.89a3.61,3.61,0,0,1,2.3-3.5v-.09a2.74,2.74,0,0,1-2.06-2.75,3.11,3.11,0,0,1,1-2.21,3.88,3.88,0,0,1,2.86-1,5.68,5.68,0,0,1,2.89.7V280a4.93,4.93,0,0,0-2.74-.89,2.19,2.19,0,0,0-2.46,2.1" transform="translate(-14.78 -244.08)"/><path class="cls-2" d="M165.38,284.48l.38-1.23h.91v8.4h-1.12l-.21-1.25-.05,0a3.8,3.8,0,0,1-3.07,1.46,4.23,4.23,0,0,1-3.21-1.2,4.38,4.38,0,0,1-1.16-3.17,4.3,4.3,0,0,1,1.25-3.12,4.26,4.26,0,0,1,3.12-1.29,4,4,0,0,1,3.16,1.42m-3.07,6.18a2.73,2.73,0,0,0,2.16-.92,3.33,3.33,0,0,0,.82-2.29,3.23,3.23,0,0,0-.84-2.25,2.71,2.71,0,0,0-2.14-.93,2.81,2.81,0,0,0-2.17.93,3.22,3.22,0,0,0-.83,2.25A2.92,2.92,0,0,0,162.31,290.66Zm.16-9h-1l2-3,1.34.45Z" transform="translate(-14.78 -244.08)"/><path class="cls-2" d="M170.6,290.57v5.12h-1.46v-7.94a5,5,0,0,1,1.18-3.33,4.11,4.11,0,0,1,3.29-1.4,4.35,4.35,0,0,1,3.21,1.29,4.57,4.57,0,0,1,.06,6.26,4.08,4.08,0,0,1-3.08,1.25,3.94,3.94,0,0,1-3.09-1.31Zm5.22-5.41a3,3,0,0,0-4.41,0,3.37,3.37,0,0,0-.81,2.32,3.25,3.25,0,0,0,.81,2.24,3.16,3.16,0,0,0,4.39,0,3.21,3.21,0,0,0,.85-2.34A3.31,3.31,0,0,0,175.82,285.16Z" transform="translate(-14.78 -244.08)"/><path class="cls-2" d="M178.84,283.23h6.36v1.14h-2.78v4.69c0,1,.3,1.53,1.21,1.53a2.75,2.75,0,0,0,1.55-.51v1.19a3.09,3.09,0,0,1-1.82.55,2.68,2.68,0,0,1-1.81-.59,1.73,1.73,0,0,1-.38-.7,6.53,6.53,0,0,1-.19-1.93v-4.23h-2.14Z" transform="translate(-14.78 -244.08)"/><path class="cls-2" d="M194.47,291.65h-1.42v-5c0-1.53-.75-2.46-2-2.46-1.53,0-2.66,1.06-2.66,3.09v4.33H187v-8.42h1l.27,1.25h.07a3.63,3.63,0,0,1,2.93-1.44c2.14,0,3.26,1.25,3.26,3.5Z" transform="translate(-14.78 -244.08)"/><path class="cls-2" d="M195.66,283.23H202v1.14h-2.78v4.69c0,1,.31,1.53,1.21,1.53a2.75,2.75,0,0,0,1.55-.51v1.19a3.06,3.06,0,0,1-1.81.55,2.71,2.71,0,0,1-1.82-.59,1.61,1.61,0,0,1-.37-.7,6.21,6.21,0,0,1-.19-1.93v-4.23h-2.14Z" transform="translate(-14.78 -244.08)"/><path class="cls-2" d="M211.28,291.65h-1.42v-5c0-1.53-.76-2.46-2-2.46-1.52,0-2.66,1.06-2.66,3.09v4.33h-1.42v-8.42h1l.27,1.25h.08A3.62,3.62,0,0,1,208,283c2.14,0,3.25,1.25,3.25,3.5Z" transform="translate(-14.78 -244.08)"/><path class="cls-2" d="M227.15,291.65,226,288.83h-5.89l-1.17,2.82h-1.49L222.93,279h.29l5.48,12.62ZM223,282l-2.43,5.71h4.95L223.06,282Z" transform="translate(-14.78 -244.08)"/><path class="cls-2" d="M231.53,290.57v5.12h-1.45v-7.94a5,5,0,0,1,1.17-3.33,4.14,4.14,0,0,1,3.29-1.4,4.36,4.36,0,0,1,3.22,1.29,4.57,4.57,0,0,1,.06,6.26,4.09,4.09,0,0,1-3.09,1.25,3.9,3.9,0,0,1-3.08-1.31Zm5.22-5.41a3,3,0,0,0-4.4,0,3.38,3.38,0,0,0-.82,2.32,3.26,3.26,0,0,0,.82,2.24,2.84,2.84,0,0,0,2.21.9,2.88,2.88,0,0,0,2.18-.87,3.25,3.25,0,0,0,.85-2.34A3.32,3.32,0,0,0,236.75,285.16Z" transform="translate(-14.78 -244.08)"/><polygon class="cls-2" points="231.63 47.56 228.99 43.5 226.26 47.56 224.73 47.56 227.65 43.25 224.9 39.15 226.44 39.15 228.99 43.01 231.52 39.15 233.06 39.15 230.29 43.23 233.21 47.56 231.63 47.56"/><path class="cls-2" d="M257,291.65h-1.42v-5c0-1.53-.75-2.46-2-2.46-1.53,0-2.67,1.06-2.67,3.09v4.33H249.5v-8.42h1l.26,1.25h.08a3.62,3.62,0,0,1,2.93-1.44c2.14,0,3.25,1.25,3.25,3.5Zm-4.08-10h-1l2-3,1.34.45Z" transform="translate(-14.78 -244.08)"/><path class="cls-2" d="M128.73,299.06l5.69,12.61H122.81l5.67-12.61Zm-.17,2.93-3.77,8.42h7.55L128.57,302Z" transform="translate(-14.78 -244.08)"/><path class="cls-2" d="M143.51,311.67H142.1v-4.95c0-1.53-.76-2.46-2-2.46-1.53,0-2.66,1.06-2.66,3.08v4.33H136v-8.41h1l.27,1.25h.07a3.6,3.6,0,0,1,2.93-1.44c2.14,0,3.25,1.25,3.25,3.49Z" transform="translate(-14.78 -244.08)"/><path class="cls-2" d="M146.16,303.26h1.42l0,5.18a2,2,0,0,0,1.89,2.21c1.52,0,2.54-1,2.54-3v-4.37h1.45v8.41h-1l-.3-1.13a.12.12,0,0,0-.08,0,3.49,3.49,0,0,1-2.85,1.3,2.2,2.2,0,0,1-1.67-.53v4.45h-1.44Z" transform="translate(-14.78 -244.08)"/><path class="cls-2" d="M163.32,304.32a4.31,4.31,0,0,1,1.25,3.14,4.34,4.34,0,0,1-4.43,4.4,4.22,4.22,0,0,1-4.46-4.4,4.25,4.25,0,0,1,1.28-3.12,4.31,4.31,0,0,1,3.18-1.29,4.25,4.25,0,0,1,3.18,1.27m-3.18,6.35a2.71,2.71,0,0,0,2.19-.93,3.36,3.36,0,0,0,.82-2.3,3.27,3.27,0,0,0-.84-2.27,3,3,0,0,0-4.34,0,3.32,3.32,0,0,0-.84,2.27A2.94,2.94,0,0,0,160.14,310.67Z" transform="translate(-14.78 -244.08)"/><path class="cls-2" d="M173.61,304.39l0,.08a4,4,0,0,1,1.47,3.16,4.09,4.09,0,0,1-1.23,3,4.34,4.34,0,0,1-7.49-3.06,4.11,4.11,0,0,1,1.27-3.06,4.22,4.22,0,0,1,3.1-1.25h4.9v1.13Zm-5,.93a3.12,3.12,0,0,0-.82,2.23,2.88,2.88,0,0,0,2.93,3.16,2.7,2.7,0,0,0,2.14-.91,3.24,3.24,0,0,0,.81-2.25,3.2,3.2,0,0,0-.79-2.23,2.72,2.72,0,0,0-2.14-.93A2.67,2.67,0,0,0,168.58,305.32Z" transform="translate(-14.78 -244.08)"/><path class="cls-2" d="M177.92,301.67h-1l2-3,1.34.45Zm.53,10H177v-8.41h1.46Z" transform="translate(-14.78 -244.08)"/><path class="cls-2" d="M192.31,310.56a3.13,3.13,0,0,1-2.69,1.28,2.84,2.84,0,0,1-2.62-1.49h-.1a3.22,3.22,0,0,1-2.74,1.49c-2.25,0-3.42-1.68-3.42-4.23a5.1,5.1,0,0,1,1-3.14,3.47,3.47,0,0,1,2.74-1.38c.08.24.21.6.38,1.08-1.66.09-2.59,1.47-2.59,3.34s.77,3.18,2.12,3.18a2,2,0,0,0,2-2.23V305.9h1.34v2.63a2,2,0,0,0,1.93,2.16c1.38,0,2.21-1.34,2.21-3.18s-1-3.25-2.59-3.34l.38-1.1a3.35,3.35,0,0,1,2.72,1.36,5,5,0,0,1,.94,3.08,5.14,5.14,0,0,1-.92,3.05" transform="translate(-14.78 -244.08)"/><polygon class="cls-2" points="183.94 67.7 183.66 67.7 179.59 59.17 181.14 59.17 183.82 65.07 183.88 65.07 186.55 59.17 188.06 59.17 183.94 67.7"/><polygon class="cls-2" points="202.83 66.3 202.83 67.59 194.38 67.59 194.38 55.09 202.36 55.09 202.36 56.35 195.91 56.35 195.91 60.38 201.87 60.38 201.87 61.63 195.91 61.63 195.91 66.3 202.83 66.3"/><path class="cls-2" d="M226.39,304.39l0,.08a4,4,0,0,1,1.48,3.16,4.09,4.09,0,0,1-1.23,3,4.33,4.33,0,0,1-7.49-3.06,4.11,4.11,0,0,1,1.27-3.06,4.22,4.22,0,0,1,3.1-1.25h4.9v1.13Zm-5,.93a3.16,3.16,0,0,0-.81,2.23,2.88,2.88,0,0,0,2.93,3.16,2.68,2.68,0,0,0,2.13-.91,3.52,3.52,0,0,0,0-4.48,2.73,2.73,0,0,0-2.14-.93A2.7,2.7,0,0,0,221.36,305.32Z" transform="translate(-14.78 -244.08)"/><path class="cls-2" d="M236.87,304.32a4.31,4.31,0,0,1,1.25,3.14,4.34,4.34,0,0,1-4.43,4.4,4.22,4.22,0,0,1-4.46-4.4,4.51,4.51,0,0,1,7.64-3.14m-3.18,6.35a2.71,2.71,0,0,0,2.19-.93,3.36,3.36,0,0,0,.82-2.3,3.31,3.31,0,0,0-.83-2.27,3,3,0,0,0-4.35,0,3.32,3.32,0,0,0-.84,2.27A2.94,2.94,0,0,0,233.69,310.67Zm.29-9h-1l2-3,1.34.45Z" transform="translate(-14.78 -244.08)"/><path class="cls-2" d="M247.35,298.6v1.27a5.46,5.46,0,0,0-2.69-.77c-1.3,0-2.17.55-2.17,1.59,0,.85,1,1.41,2.19,1.92a16.93,16.93,0,0,1,1.82.89,4.61,4.61,0,0,1,1,7.09,4.25,4.25,0,0,1-3.18,1.27,4.16,4.16,0,0,1-4.46-4.4,4.62,4.62,0,0,1,.8-2.56,4.23,4.23,0,0,1,2.23-1.7v-.08a2.65,2.65,0,0,1-1.76-2.4,2.43,2.43,0,0,1,.91-1.94,3.56,3.56,0,0,1,2.45-.8,6.16,6.16,0,0,1,2.9.62m-3.09,5.24a3.34,3.34,0,0,0-2.21,1.31,3.78,3.78,0,0,0-.77,2.29,3.45,3.45,0,0,0,.79,2.32,3,3,0,0,0,4.39,0,3.37,3.37,0,0,0,.83-2.3C247.29,305.64,246.29,304.43,244.26,303.84Z" transform="translate(-14.78 -244.08)"/><path class="cls-2" d="M262,310.56a3.11,3.11,0,0,1-2.68,1.28,2.85,2.85,0,0,1-2.63-1.49h-.09a3.22,3.22,0,0,1-2.75,1.49c-2.25,0-3.42-1.68-3.42-4.23a5.1,5.1,0,0,1,1-3.14,3.49,3.49,0,0,1,2.75-1.38c.07.24.2.6.37,1.08-1.66.09-2.59,1.47-2.59,3.34s.78,3.18,2.12,3.18a2,2,0,0,0,2-2.23V305.9h1.34v2.63a2,2,0,0,0,1.93,2.16c1.38,0,2.21-1.34,2.21-3.18s-1-3.25-2.59-3.34l.38-1.1a3.35,3.35,0,0,1,2.72,1.36,4.94,4.94,0,0,1,.95,3.08,5.08,5.08,0,0,1-.93,3.05" transform="translate(-14.78 -244.08)"/><polygon class="cls-2" points="253.63 67.7 253.35 67.7 249.28 59.17 250.83 59.17 253.52 65.07 253.58 65.07 256.24 59.17 257.75 59.17 253.63 67.7"/><path class="cls-2" d="M122.53,265.8h4.87l1.52-3.42h8.34l1.48,3.42h5l-10-21.72h-1.12ZM135.8,259h-5.4l2.67-6h.13Z" transform="translate(-14.78 -244.08)"/><path class="cls-2" d="M146.47,265.8h4.87l1.52-3.42h8.34l1.48,3.42h5l-10-21.72h-1.12ZM159.75,259h-5.41l2.67-6h.13Z" transform="translate(-14.78 -244.08)"/><path class="cls-2" d="M170.48,265.8H192l-10.15-21.72h-1.09ZM185.8,262h-9.36l4.61-10.31h.07Z" transform="translate(-14.78 -244.08)"/><polygon class="cls-2" points="194.66 3.76 194.66 0 179.93 0 179.93 21.72 195.29 21.72 195.29 17.93 184.84 17.93 184.84 12.23 193.64 12.23 193.64 8.57 184.84 8.57 184.84 3.76 194.66 3.76"/></svg>