<svg id="Layer_1" data-name="Layer 1" xmlns="http://www.w3.org/2000/svg" viewBox="0 0 63.81 57.4"><defs><style>.cls-1{fill:#0091d4;}</style></defs><title>my-blue</title><path class="cls-1" d="M150.37,258.48a36,36,0,0,1-.81,7.21c-1.71,7.3-2.34,12-2,14,.09.45-.18.72-.9.9a2.88,2.88,0,0,1-1.8.18,2.1,2.1,0,0,1-1.81-2.52c.82-5.77,1.54-10,2.17-12.8a39,39,0,0,0,.81-6.13c0-1.53-.27-2.43-.81-2.88s-2,1.17-4.42,4.6c-2.52,3.69-4.14,6.66-4.77,9.46a66.67,66.67,0,0,0-1.45,7.3c0,.09-.09.72-.09,1.71,0,.63-.09,1.08-.36,1.26a3.53,3.53,0,0,1-1.17.18q-3.51,0-3.24-3.51c.72-3.34,1.44-6.13,1.89-8.56a29.07,29.07,0,0,0,.54-6.58q0-5.82-.81-5.95c-1,.18-2.25,1.8-4,4.87-1.36,2.43-2.26,4.59-3.25,6.75-1.35,4.78-2.25,8.47-2.88,11.27a3.83,3.83,0,0,1-.18,1c-.18.45-.54.63-1.17.63a4.4,4.4,0,0,1-1.17-.09,2.54,2.54,0,0,1-2.08-2.43c0-.27,0-.45.09-.54l3.16-12.26a18.84,18.84,0,0,0,.63-6.12c0-2.08-.27-3.07-.9-3.07a10.18,10.18,0,0,0-3,4.6,21.92,21.92,0,0,0-.27,2.7c0,.45-.63.72-2,.72-.81,0-1.35-.18-1.62-.63-.54-.63-.63-1.71-.18-3.15a15.94,15.94,0,0,1,3.15-5.59c1.89-2.25,3.61-3.33,5.32-3.06,1.89.27,2.88,2.7,3.06,7.11a17.82,17.82,0,0,1,3.16-4.5c2.07-2.16,3.87-3.33,5.4-3.42,2.61,0,3.79,3.24,3.61,9.64.45-1.17,1.8-2.89,4.05-5.23,2.7-2.88,4.87-4.32,6.49-4.23C149.2,251.46,150.37,253.89,150.37,258.48Z" transform="translate(-112.33 -251.1)"/><path class="cls-1" d="M176.14,285.15c0,.82-.27,1.18-.9,1.18a24.37,24.37,0,0,0-8.92,1.17,72.84,72.84,0,0,1-3.34,7.75c-4.5,8.83-9.82,13.24-16,13.24a6.69,6.69,0,0,1-4.33-1.17c-.63-.36-.9-1.08-.9-2.25q0-5.42,7.84-13,4.45-4.18,13.24-7.3c.36-1.35,1.36-5.13,2.8-11.89-3.7,5.14-7.12,7.75-10.09,7.75a6.16,6.16,0,0,1-3-.81c-1.71-1-2.61-3-2.61-5.86,0-4.68,2-11.08,6-19.28.72-1.53,1.62-2.25,2.7-2.07a4.06,4.06,0,0,1,1.53.45c.63.27.9.63.72,1a27.21,27.21,0,0,0-1.35,2.61,52.13,52.13,0,0,0-3.06,8.2,33.39,33.39,0,0,0-2.08,9.64c0,1.62.36,2.44,1.18,2.44,1.26,0,3.15-1.72,5.67-5.23a43.49,43.49,0,0,0,5.32-9.64c.63-3.16,1.26-6.49,2.25-10l.09-.09.18-.18c.09-.09.09-.09.18-.09l.09-.18c.45-.27.45-.63,2.16.36q1.35.81,1.35,1.62v.54c0,.45-.08,1.08-.18,2.07-.18,4.06-1.53,11.62-4.05,22.62-.36,1.8-.72,3.33-1.08,4.68a18.78,18.78,0,0,1,4.23-.54c1.81,0,3.07.36,3.79,1.08a1.7,1.7,0,0,1,.63,1.26ZM161,289.48a26.44,26.44,0,0,0-9.1,5.95c-4.05,4.14-6,7.11-6,9,0,.36.09.54.27.63a2,2,0,0,0,1.09.27c1.53,0,3.33-.81,5.22-2.53a32.25,32.25,0,0,0,6.85-9.64C159.92,291.82,160.55,290.65,161,289.48Z" transform="translate(-112.33 -251.1)"/></svg>