<svg xmlns="http://www.w3.org/2000/svg" viewBox="0 0 333.6 59.06"><defs><style>.cls-1{fill:#1f3364;}.cls-2{fill:#0092d3;}</style></defs><title>mybuiness_logo</title><g id="die_line" data-name="die line"><path class="cls-1" d="M2753.67,2019.84a6.82,6.82,0,0,1,2.14,1.19,6.57,6.57,0,0,1,1.44,1.69,7.88,7.88,0,0,1,.83,2,9.1,9.1,0,0,1,.27,2.18,8.09,8.09,0,0,1-.71,3.43,8,8,0,0,1-1.93,2.65,8.71,8.71,0,0,1-2.91,1.71,10.41,10.41,0,0,1-3.61.61h-9.57a2.18,2.18,0,0,1-1.58-.48,2.14,2.14,0,0,1-.48-1.54V2009.1a2.31,2.31,0,0,1,.44-1.56,2.11,2.11,0,0,1,1.61-.5l9,0a13.94,13.94,0,0,1,3.4.38,7.43,7.43,0,0,1,2.68,1.23,6,6,0,0,1,1.77,2.16,7.14,7.14,0,0,1,.65,3.17,6.24,6.24,0,0,1-.93,3.33,5.91,5.91,0,0,1-2.5,2.28Zm-12.4-1.38h7.43a6.66,6.66,0,0,0,1.45-.18,4.54,4.54,0,0,0,1.52-.65,3.61,3.61,0,0,0,1.17-1.3,4.31,4.31,0,0,0,.46-2.13,3.58,3.58,0,0,0-1.15-2.76,4.45,4.45,0,0,0-3.13-1h-7.75Zm13.28,8.2a4.91,4.91,0,0,0-1.47-3.71,6,6,0,0,0-4.3-1.42h-7.51V2032h7.51a6.84,6.84,0,0,0,2.87-.53,4.87,4.87,0,0,0,1.77-1.31,4.39,4.39,0,0,0,.89-1.71A7,7,0,0,0,2754.55,2026.66Z" transform="translate(-2674.46 -2006.11)"/><path class="cls-1" d="M2761.14,2014.2a1,1,0,0,1,.48-.1h2.22a1,1,0,0,1,.49.1c.1.07.16.24.16.51v10.8a18.4,18.4,0,0,0,.24,3.18,5.21,5.21,0,0,0,.91,2.25,3.81,3.81,0,0,0,1.9,1.31,10.12,10.12,0,0,0,3.21.43q.43,0,1.47-.06c.69,0,1.47-.13,2.36-.27v-17.64c0-.27.05-.44.14-.51a1,1,0,0,1,.51-.1h2.22a1,1,0,0,1,.48.1c.11.07.16.24.16.51v17.64a2.81,2.81,0,0,1-2.54,3.07c-.38,0-.79.1-1.25.14s-.92.08-1.37.1l-1.34.06c-.43,0-.8,0-1.13,0a15.56,15.56,0,0,1-4.42-.54,6.53,6.53,0,0,1-2.93-1.74,7.05,7.05,0,0,1-1.63-3.11,18.31,18.31,0,0,1-.51-4.66v-11C2761,2014.44,2761,2014.27,2761.14,2014.2Z" transform="translate(-2674.46 -2006.11)"/><path class="cls-1" d="M2795.7,2029.61a5.9,5.9,0,0,1-.59,2.72,5.45,5.45,0,0,1-1.61,1.92,7.19,7.19,0,0,1-2.43,1.15,10.86,10.86,0,0,1-3,.38,24.4,24.4,0,0,1-4-.36,12.4,12.4,0,0,1-3.8-1.25.76.76,0,0,1-.34-.32.58.58,0,0,1,.06-.53l.77-1.65a.69.69,0,0,1,.3-.41.9.9,0,0,1,.59.08,13.73,13.73,0,0,0,3.33,1.11,15.94,15.94,0,0,0,3.13.35,5.29,5.29,0,0,0,3.06-.79,2.57,2.57,0,0,0,1.14-2.24,2.65,2.65,0,0,0-1.3-2.34,17.56,17.56,0,0,0-3.67-1.7,28.2,28.2,0,0,1-2.93-1.21,8.93,8.93,0,0,1-2-1.31,4.32,4.32,0,0,1-1.15-1.6,5.56,5.56,0,0,1-.36-2.1,5.34,5.34,0,0,1,1.84-4.18,7.78,7.78,0,0,1,5.35-1.63,19.87,19.87,0,0,1,3.21.26,15.06,15.06,0,0,1,3.12.91.58.58,0,0,1,.33.77l-.77,1.89c-.08.17-.17.25-.26.25a1.07,1.07,0,0,1-.35-.08,13.49,13.49,0,0,0-5.36-1,4.23,4.23,0,0,0-2.75.76,2.34,2.34,0,0,0-.93,1.86,2.58,2.58,0,0,0,.26,1.19,2.77,2.77,0,0,0,.83.93,8,8,0,0,0,1.49.83c.62.27,1.36.56,2.23.89s1.64.66,2.44,1a9.1,9.1,0,0,1,2.1,1.27,6.32,6.32,0,0,1,1.47,1.75A4.91,4.91,0,0,1,2795.7,2029.61Z" transform="translate(-2674.46 -2006.11)"/><path class="cls-1" d="M2802.6,2008.49a2.34,2.34,0,0,1-2.34,2.34,2.35,2.35,0,0,1-1.68-.68,2.23,2.23,0,0,1-.7-1.66,2.29,2.29,0,0,1,.7-1.7,2.35,2.35,0,0,1,1.68-.68,2.25,2.25,0,0,1,1.65.68A2.32,2.32,0,0,1,2802.6,2008.49Zm-.65,26.24c0,.27,0,.44-.14.51a.87.87,0,0,1-.5.1h-2.18a1.05,1.05,0,0,1-.51-.1q-.18-.1-.18-.51v-20q0-.4.18-.51a1.18,1.18,0,0,1,.51-.1h2.18a1,1,0,0,1,.5.1c.1.07.14.24.14.51Z" transform="translate(-2674.46 -2006.11)"/><path class="cls-1" d="M2822.36,2035.24a.87.87,0,0,1-.5.1h-2.22a.92.92,0,0,1-.49-.1c-.1-.07-.16-.24-.16-.51V2024a14.94,14.94,0,0,0-.3-3.18,5.26,5.26,0,0,0-1.05-2.26,4.45,4.45,0,0,0-2-1.36,10.06,10.06,0,0,0-3.21-.44c-.29,0-.79,0-1.49.06s-1.48.13-2.34.26v17.64c0,.27-.06.44-.17.51a.86.86,0,0,1-.48.1h-2.22a.86.86,0,0,1-.48-.1c-.11-.07-.17-.24-.17-.51v-17.6a3.59,3.59,0,0,1,.55-2.12,2.85,2.85,0,0,1,2-1c.29,0,.66-.1,1.11-.14l1.39-.12c.49,0,1-.07,1.41-.08l1.17,0a15.65,15.65,0,0,1,4.45.56,7,7,0,0,1,3,1.8,7.46,7.46,0,0,1,1.76,3.17,16.73,16.73,0,0,1,.57,4.68v10.82Q2822.51,2035.14,2822.36,2035.24Z" transform="translate(-2674.46 -2006.11)"/><path class="cls-1" d="M2834.05,2013.7a10.85,10.85,0,0,1,4,.65,7.07,7.07,0,0,1,2.75,1.83,7.79,7.79,0,0,1,1.59,2.83,11.74,11.74,0,0,1,.53,3.61,4.36,4.36,0,0,1-.25,1.58,2.31,2.31,0,0,1-.66,1,2.67,2.67,0,0,1-1,.48,4.83,4.83,0,0,1-1.15.14h-11.63a8.6,8.6,0,0,0,.53,3.23,5.89,5.89,0,0,0,1.39,2.16,5.15,5.15,0,0,0,2,1.19,8.33,8.33,0,0,0,2.49.37,10.29,10.29,0,0,0,2.64-.35,10.82,10.82,0,0,0,2.14-.78.49.49,0,0,1,.77.2l.85,1.69q.28.57-.24.81a9.1,9.1,0,0,1-3.13,1.19,18.72,18.72,0,0,1-3.29.3,12,12,0,0,1-4.06-.64,7.61,7.61,0,0,1-3.05-2,9,9,0,0,1-1.92-3.39,16.25,16.25,0,0,1-.66-4.93,14.77,14.77,0,0,1,.7-4.74,10.08,10.08,0,0,1,2-3.49,8.32,8.32,0,0,1,3-2.16A9.08,9.08,0,0,1,2834.05,2013.7Zm5.53,9.25a11.8,11.8,0,0,0-.24-2.41,5.26,5.26,0,0,0-.87-2,4.47,4.47,0,0,0-1.7-1.37,6.48,6.48,0,0,0-2.7-.5,5.17,5.17,0,0,0-2.37.52,5.4,5.4,0,0,0-1.74,1.39,6.82,6.82,0,0,0-1.11,2,8.61,8.61,0,0,0-.49,2.39Z" transform="translate(-2674.46 -2006.11)"/><path class="cls-1" d="M2859.61,2029.61a5.78,5.78,0,0,1-.59,2.72,5.35,5.35,0,0,1-1.61,1.92,7.14,7.14,0,0,1-2.42,1.15,11,11,0,0,1-3,.38,24.4,24.4,0,0,1-4-.36,12.34,12.34,0,0,1-3.79-1.25.78.78,0,0,1-.35-.32.65.65,0,0,1,.06-.53l.77-1.65a.69.69,0,0,1,.3-.41.9.9,0,0,1,.59.08,14,14,0,0,0,3.33,1.11,16,16,0,0,0,3.13.35,5.35,5.35,0,0,0,3.07-.79,2.58,2.58,0,0,0,1.13-2.24,2.65,2.65,0,0,0-1.29-2.34,17.93,17.93,0,0,0-3.68-1.7,28,28,0,0,1-2.92-1.21,8.5,8.5,0,0,1-2-1.31,4.21,4.21,0,0,1-1.15-1.6,5.8,5.8,0,0,1,1.47-6.28,7.8,7.8,0,0,1,5.35-1.63,19.87,19.87,0,0,1,3.21.26,15,15,0,0,1,3.13.91.58.58,0,0,1,.32.77l-.77,1.89c-.08.17-.16.25-.26.25a1,1,0,0,1-.34-.08,13.57,13.57,0,0,0-5.37-1,4.25,4.25,0,0,0-2.75.76,2.34,2.34,0,0,0-.93,1.86,2.46,2.46,0,0,0,.27,1.19,2.73,2.73,0,0,0,.82.93,7.8,7.8,0,0,0,1.5.83c.62.27,1.36.56,2.22.89s1.65.66,2.44,1a8.7,8.7,0,0,1,2.1,1.27,6.19,6.19,0,0,1,1.48,1.75A5,5,0,0,1,2859.61,2029.61Z" transform="translate(-2674.46 -2006.11)"/><path class="cls-1" d="M2876.12,2029.61a5.9,5.9,0,0,1-.58,2.72,5.37,5.37,0,0,1-1.62,1.92,7.05,7.05,0,0,1-2.42,1.15,11,11,0,0,1-3,.38,24.29,24.29,0,0,1-4-.36,12.31,12.31,0,0,1-3.8-1.25.71.71,0,0,1-.34-.32.58.58,0,0,1,.06-.53l.76-1.65a.74.74,0,0,1,.31-.41.88.88,0,0,1,.58.08,14,14,0,0,0,3.33,1.11,16.1,16.1,0,0,0,3.13.35,5.3,5.3,0,0,0,3.07-.79,2.58,2.58,0,0,0,1.13-2.24,2.65,2.65,0,0,0-1.29-2.34,17.81,17.81,0,0,0-3.67-1.7,28.2,28.2,0,0,1-2.93-1.21,8.71,8.71,0,0,1-2-1.31,4.32,4.32,0,0,1-1.15-1.6,5.56,5.56,0,0,1-.36-2.1,5.36,5.36,0,0,1,1.83-4.18,7.82,7.82,0,0,1,5.35-1.63,19.68,19.68,0,0,1,3.21.26,15,15,0,0,1,3.13.91.58.58,0,0,1,.32.77l-.76,1.89c-.08.17-.17.25-.26.25a1.07,1.07,0,0,1-.35-.08,13.49,13.49,0,0,0-5.37-1,4.22,4.22,0,0,0-2.74.76,2.34,2.34,0,0,0-.93,1.86,2.58,2.58,0,0,0,.26,1.19,2.77,2.77,0,0,0,.83.93,7.4,7.4,0,0,0,1.49.83c.62.27,1.36.56,2.22.89s1.65.66,2.45,1a8.82,8.82,0,0,1,2.09,1.27,6.19,6.19,0,0,1,1.48,1.75A4.9,4.9,0,0,1,2876.12,2029.61Z" transform="translate(-2674.46 -2006.11)"/><path class="cls-1" d="M2897.32,2027.79a7.57,7.57,0,0,1-.77,3.51,7.28,7.28,0,0,1-2.1,2.51,8.84,8.84,0,0,1-3.15,1.49,15.23,15.23,0,0,1-3.91.48c-.78,0-1.6,0-2.46-.1a24.28,24.28,0,0,1-2.63-.34,22.1,22.1,0,0,1-2.64-.65,15,15,0,0,1-2.53-1c-.29-.16-.35-.43-.16-.8l1-2.14a.43.43,0,0,1,.65-.24,23.47,23.47,0,0,0,4.34,1.43,18.5,18.5,0,0,0,4.09.5,8.5,8.5,0,0,0,4.79-1.15,3.76,3.76,0,0,0,1.72-3.33,3.88,3.88,0,0,0-.43-1.84,4.92,4.92,0,0,0-1.25-1.45,10.48,10.48,0,0,0-2.08-1.25c-.83-.39-1.8-.79-2.91-1.19a41.48,41.48,0,0,1-3.89-1.62,12.62,12.62,0,0,1-2.79-1.75,6.5,6.5,0,0,1-1.67-2.12,6.11,6.11,0,0,1-.57-2.71,6.89,6.89,0,0,1,2.3-5.37q2.31-2.06,6.7-2.06a24.81,24.81,0,0,1,4.26.39,17.34,17.34,0,0,1,4.18,1.23.49.49,0,0,1,.29.68l-.89,2.27a.7.7,0,0,1-.22.32.46.46,0,0,1-.31,0,21.21,21.21,0,0,0-3.93-1.15,19.55,19.55,0,0,0-3.5-.35,5.87,5.87,0,0,0-3.75,1.07,3.36,3.36,0,0,0-1.33,2.73,3.26,3.26,0,0,0,.44,1.74,4.57,4.57,0,0,0,1.31,1.33,12.5,12.5,0,0,0,2.19,1.17c.89.38,1.93.81,3.14,1.29s2.2.88,3.23,1.35a12.26,12.26,0,0,1,2.69,1.68,7.58,7.58,0,0,1,1.88,2.3A6.74,6.74,0,0,1,2897.32,2027.79Z" transform="translate(-2674.46 -2006.11)"/><path class="cls-1" d="M2899,2014.2a1,1,0,0,1,.48-.1h2.22a1,1,0,0,1,.49.1c.1.07.16.24.16.51v10.8a18.4,18.4,0,0,0,.24,3.18,5.21,5.21,0,0,0,.91,2.25,3.85,3.85,0,0,0,1.9,1.31,10.12,10.12,0,0,0,3.21.43q.43,0,1.47-.06c.69,0,1.47-.13,2.36-.27v-17.64c0-.27.05-.44.14-.51a1,1,0,0,1,.51-.1h2.22a1,1,0,0,1,.48.1c.11.07.16.24.16.51v17.64a2.81,2.81,0,0,1-2.54,3.07c-.38,0-.79.1-1.25.14s-.92.08-1.37.1l-1.34.06c-.43,0-.8,0-1.13,0a15.56,15.56,0,0,1-4.42-.54,6.53,6.53,0,0,1-2.93-1.74,7.05,7.05,0,0,1-1.63-3.11,18.35,18.35,0,0,1-.5-4.66v-11C2898.86,2014.44,2898.91,2014.27,2899,2014.2Z" transform="translate(-2674.46 -2006.11)"/><path class="cls-1" d="M2937.13,2024.72a15.57,15.57,0,0,1-.58,4.3,10.88,10.88,0,0,1-1.74,3.51,8.07,8.07,0,0,1-2.93,2.39,9.39,9.39,0,0,1-4.12.86c-.75,0-1.56,0-2.44-.12a14.45,14.45,0,0,1-2.81-.57v7.84c0,.24,0,.4-.14.47a.87.87,0,0,1-.46.1h-2.26a1,1,0,0,1-.49-.1.56.56,0,0,1-.16-.47v-27a.66.66,0,0,1,.49-.69,15.69,15.69,0,0,1,4.16-1.19,29.25,29.25,0,0,1,4.07-.3,9.86,9.86,0,0,1,4.2.83,7.85,7.85,0,0,1,2.93,2.3,10,10,0,0,1,1.72,3.49A16.56,16.56,0,0,1,2937.13,2024.72Zm-3.67,0a13.3,13.3,0,0,0-.45-3.73,6.1,6.1,0,0,0-1.27-2.45,4.8,4.8,0,0,0-2-1.35,7.5,7.5,0,0,0-2.6-.42,15.25,15.25,0,0,0-2.38.2,10.6,10.6,0,0,0-2.27.56V2032a18.46,18.46,0,0,0,2.65.59,17.06,17.06,0,0,0,2,.14,7.09,7.09,0,0,0,2.52-.43,4.73,4.73,0,0,0,2-1.36,6.63,6.63,0,0,0,1.29-2.47A13,13,0,0,0,2933.46,2024.72Z" transform="translate(-2674.46 -2006.11)"/><path class="cls-1" d="M2957.48,2024.72a15.2,15.2,0,0,1-.59,4.3,10.67,10.67,0,0,1-1.73,3.51,8.07,8.07,0,0,1-2.93,2.39,9.39,9.39,0,0,1-4.12.86c-.75,0-1.57,0-2.44-.12a14.45,14.45,0,0,1-2.81-.57v7.84c0,.24,0,.4-.14.47a.87.87,0,0,1-.46.1H2940a1,1,0,0,1-.49-.1c-.11-.07-.16-.23-.16-.47v-27a.66.66,0,0,1,.49-.69A15.73,15.73,0,0,1,2944,2014a29.5,29.5,0,0,1,4.08-.3,9.86,9.86,0,0,1,4.2.83,7.85,7.85,0,0,1,2.93,2.3,10,10,0,0,1,1.72,3.49A16.56,16.56,0,0,1,2957.48,2024.72Zm-3.67,0a13.3,13.3,0,0,0-.45-3.73,6.1,6.1,0,0,0-1.27-2.45,4.8,4.8,0,0,0-2-1.35,7.54,7.54,0,0,0-2.6-.42,15.25,15.25,0,0,0-2.38.2,10.6,10.6,0,0,0-2.27.56V2032a18.46,18.46,0,0,0,2.65.59,17.06,17.06,0,0,0,2,.14,7.09,7.09,0,0,0,2.52-.43,4.73,4.73,0,0,0,2-1.36,6.63,6.63,0,0,0,1.29-2.47A13,13,0,0,0,2953.81,2024.72Z" transform="translate(-2674.46 -2006.11)"/><path class="cls-1" d="M2977.71,2024.64q0,5.41-2.44,8.28t-7.07,2.86c-3,0-5.35-.92-6.93-2.78s-2.38-4.6-2.38-8.24a14.55,14.55,0,0,1,.71-4.72,10,10,0,0,1,2-3.47,8.23,8.23,0,0,1,3-2.14,9.53,9.53,0,0,1,3.75-.73,8.54,8.54,0,0,1,7,2.91Q2977.71,2019.51,2977.71,2024.64Zm-3.51.12a19,19,0,0,0-.25-3,7.29,7.29,0,0,0-.89-2.58,5.08,5.08,0,0,0-1.77-1.8,5.62,5.62,0,0,0-2.91-.68,5.27,5.27,0,0,0-2.66.64,5.35,5.35,0,0,0-1.86,1.74,7.9,7.9,0,0,0-1.09,2.54,12.72,12.72,0,0,0-.36,3.07,18.07,18.07,0,0,0,.28,3.33,7.24,7.24,0,0,0,1,2.59,4.79,4.79,0,0,0,1.79,1.67,5.87,5.87,0,0,0,2.81.61,5.47,5.47,0,0,0,2.85-.69,5.23,5.23,0,0,0,1.83-1.82,7.73,7.73,0,0,0,1-2.58A15.47,15.47,0,0,0,2974.2,2024.76Z" transform="translate(-2674.46 -2006.11)"/><path class="cls-1" d="M2991.88,2019.07c-.14.19-.25.26-.34.22a3,3,0,0,1-.35-.18,7.88,7.88,0,0,0-2.58-1.68,8.36,8.36,0,0,0-3.15-.58,12.63,12.63,0,0,0-2.38.24v17.64c0,.27-.06.44-.17.51a.92.92,0,0,1-.49.1h-2.24a.8.8,0,0,1-.47-.1q-.15-.1-.15-.51V2017a3.78,3.78,0,0,1,.49-2.14,3,3,0,0,1,2-.93l1.58-.14c.51,0,1-.06,1.54-.06a14.1,14.1,0,0,1,4.4.65,10.44,10.44,0,0,1,3.71,2.13.42.42,0,0,1,0,.65Z" transform="translate(-2674.46 -2006.11)"/><path class="cls-1" d="M2994.79,2017a.55.55,0,0,1-.47-.16.76.76,0,0,1-.1-.41v-1.19a.69.69,0,0,1,.57-.7l3.15-.61.64-3.88a.9.9,0,0,1,.24-.52,3.65,3.65,0,0,1,.49-.28l1.33-.49a.58.58,0,0,1,.44,0c.11.07.17.24.17.51v4.88h4.48c.24,0,.39.06.46.17a.83.83,0,0,1,.1.45v1.64a.75.75,0,0,1-.1.45.62.62,0,0,1-.46.12h-4.48v13.08a2.8,2.8,0,0,0,.62,2,2.86,2.86,0,0,0,2.08.63c.35,0,.84,0,1.47-.1l1.64-.19c.24,0,.4,0,.46,0a.6.6,0,0,1,.15.31l.36,1.79a1.42,1.42,0,0,1,0,.4c0,.1-.13.2-.34.28a11.11,11.11,0,0,1-2.47.45c-.86.07-1.48.1-1.85.1-2.1,0-3.57-.45-4.4-1.35a5.91,5.91,0,0,1-1.26-4.16V2017Z" transform="translate(-2674.46 -2006.11)"/><path class="cls-2" d="M2711.36,2016.66a34.48,34.48,0,0,1-.79,7c-1.66,7.08-2.27,11.62-1.92,13.55.09.43-.18.7-.88.87a2.84,2.84,0,0,1-1.74.18,2,2,0,0,1-1.75-2.45c.78-5.59,1.48-9.7,2.1-12.41a38.32,38.32,0,0,0,.78-5.94c0-1.49-.26-2.36-.78-2.8s-1.93,1.13-4.29,4.46c-2.44,3.58-4,6.46-4.63,9.17a67.89,67.89,0,0,0-1.4,7.08c0,.09-.08.7-.08,1.66,0,.61-.09,1-.35,1.23a3.75,3.75,0,0,1-1.14.17q-3.4,0-3.15-3.41c.7-3.23,1.4-5.94,1.84-8.3a28,28,0,0,0,.52-6.38q0-5.64-.78-5.77c-1,.18-2.19,1.75-3.85,4.72-1.31,2.36-2.18,4.46-3.15,6.56-1.31,4.63-2.18,8.21-2.79,10.92a3.61,3.61,0,0,1-.18,1c-.17.44-.52.61-1.13.61a4.67,4.67,0,0,1-1.14-.08,2.48,2.48,0,0,1-2-2.36c0-.27,0-.44.09-.53l3.06-11.88a18.38,18.38,0,0,0,.61-6c0-2-.26-3-.88-3a9.88,9.88,0,0,0-2.88,4.46,22.16,22.16,0,0,0-.26,2.62c0,.44-.61.7-1.92.7-.79,0-1.32-.18-1.58-.61-.52-.61-.61-1.66-.17-3.06a15.4,15.4,0,0,1,3.06-5.42c1.83-2.18,3.49-3.23,5.15-3,1.84.26,2.8,2.62,3,6.9a17.85,17.85,0,0,1,3.06-4.37c2-2.09,3.76-3.23,5.25-3.32,2.53,0,3.67,3.15,3.49,9.35.44-1.13,1.75-2.79,3.94-5.07,2.62-2.79,4.72-4.19,6.29-4.1C2710.22,2009.84,2711.36,2012.2,2711.36,2016.66Z" transform="translate(-2674.46 -2006.11)"/><path class="cls-2" d="M2736.35,2042.53c0,.78-.26,1.13-.87,1.13a23.75,23.75,0,0,0-8.65,1.14,71.16,71.16,0,0,1-3.24,7.52c-4.37,8.56-9.52,12.84-15.55,12.84a6.53,6.53,0,0,1-4.2-1.13c-.61-.35-.87-1.05-.87-2.19q0-5.24,7.6-12.58,4.32-4.07,12.85-7.08c.35-1.31,1.31-5,2.71-11.54-3.59,5-6.91,7.52-9.79,7.52a5.94,5.94,0,0,1-2.89-.79c-1.66-1-2.53-2.88-2.53-5.68,0-4.54,1.92-10.75,5.77-18.7.7-1.49,1.57-2.19,2.62-2a3.77,3.77,0,0,1,1.48.44c.62.26.88.61.7,1a26.79,26.79,0,0,0-1.31,2.53,51.19,51.19,0,0,0-3,7.95,32.57,32.57,0,0,0-2,9.36c0,1.57.35,2.36,1.14,2.36,1.22,0,3.06-1.67,5.5-5.07a42.34,42.34,0,0,0,5.16-9.36c.61-3.05,1.22-6.29,2.19-9.7l.08-.08.18-.18c.08-.09.08-.09.17-.09l.09-.17c.44-.26.44-.61,2.1.35.87.52,1.31,1,1.31,1.57v.53c0,.43-.09,1-.18,2-.17,3.93-1.48,11.27-3.93,21.93-.35,1.75-.7,3.24-1.05,4.55a18.31,18.31,0,0,1,4.11-.53,5.11,5.11,0,0,1,3.67,1.05,1.65,1.65,0,0,1,.61,1.23Zm-14.68,4.19a25.79,25.79,0,0,0-8.83,5.77c-3.93,4-5.85,6.91-5.85,8.74,0,.35.08.53.26.61a1.82,1.82,0,0,0,1.05.27c1.48,0,3.23-.79,5.07-2.45a31.53,31.53,0,0,0,6.64-9.35C2720.62,2049,2721.23,2047.86,2721.67,2046.72Z" transform="translate(-2674.46 -2006.11)"/></g></svg>