<svg width="172" height="59.059999999999995" xmlns="http://www.w3.org/2000/svg" xmlns:svg="http://www.w3.org/2000/svg">
 <defs>
  <style>.cls-1{fill:#1f3364;}.cls-2{fill:#0092d3;}</style>
  <pattern height="100" width="100" y="0" x="0" patternUnits="userSpaceOnUse" id="gridpattern">
   <image height="100" width="100" y="0" x="0"/>
  </pattern>
 </defs>
 <title>mybuiness_logo</title>
 <g>
  <title>Layer 1</title>
  <g id="die_line">
   <path id="svg_16" d="m36.90004,10.55001a34.48,34.48 0 0 1 -0.79,7c-1.66,7.08 -2.27,11.62 -1.92,13.55c0.09,0.43 -0.18,0.7 -0.88,0.87a2.84,2.84 0 0 1 -1.74,0.18a2,2 0 0 1 -1.75,-2.45c0.78,-5.59 1.48,-9.7 2.1,-12.41a38.32,38.32 0 0 0 0.78,-5.94c0,-1.49 -0.26,-2.36 -0.78,-2.8s-1.93,1.13 -4.29,4.46c-2.44,3.58 -4,6.46 -4.63,9.17a67.89,67.89 0 0 0 -1.4,7.08c0,0.09 -0.08,0.7 -0.08,1.66c0,0.61 -0.09,1 -0.35,1.23a3.75,3.75 0 0 1 -1.14,0.17q-3.4,0 -3.15,-3.41c0.7,-3.23 1.4,-5.94 1.84,-8.3a28,28 0 0 0 0.52,-6.38q0,-5.64 -0.78,-5.77c-1,0.18 -2.19,1.75 -3.85,4.72c-1.31,2.36 -2.18,4.46 -3.15,6.56c-1.31,4.63 -2.18,8.21 -2.79,10.92a3.61,3.61 0 0 1 -0.18,1c-0.17,0.44 -0.52,0.61 -1.13,0.61a4.67,4.67 0 0 1 -1.14,-0.08a2.48,2.48 0 0 1 -2,-2.36c0,-0.27 0,-0.44 0.09,-0.53l3.06,-11.88a18.38,18.38 0 0 0 0.61,-6c0,-2 -0.26,-3 -0.88,-3a9.88,9.88 0 0 0 -2.88,4.46a22.16,22.16 0 0 0 -0.26,2.62c0,0.44 -0.61,0.7 -1.92,0.7c-0.79,0 -1.32,-0.18 -1.58,-0.61c-0.52,-0.61 -0.61,-1.66 -0.17,-3.06a15.4,15.4 0 0 1 3.06,-5.42c1.83,-2.18 3.49,-3.23 5.15,-3c1.84,0.26 2.8,2.62 3,6.9a17.85,17.85 0 0 1 3.06,-4.37c2,-2.09 3.76,-3.23 5.25,-3.32c2.53,0 3.67,3.15 3.49,9.35c0.44,-1.13 1.75,-2.79 3.94,-5.07c2.62,-2.79 4.72,-4.19 6.29,-4.1c2.23,0.23 3.37,2.59 3.37,7.05z" class="cls-2"/>
   <path id="svg_17" d="m61.89004,36.42001c0,0.78 -0.26,1.13 -0.87,1.13a23.75,23.75 0 0 0 -8.65,1.14a71.16,71.16 0 0 1 -3.24,7.52c-4.37,8.56 -9.52,12.84 -15.55,12.84a6.53,6.53 0 0 1 -4.2,-1.13c-0.61,-0.35 -0.87,-1.05 -0.87,-2.19q0,-5.24 7.6,-12.58q4.32,-4.07 12.85,-7.08c0.35,-1.31 1.31,-5 2.71,-11.54c-3.59,5 -6.91,7.52 -9.79,7.52a5.94,5.94 0 0 1 -2.89,-0.79c-1.66,-1 -2.53,-2.88 -2.53,-5.68c0,-4.54 1.92,-10.75 5.77,-18.7c0.7,-1.49 1.57,-2.19 2.62,-2a3.77,3.77 0 0 1 1.48,0.44c0.62,0.26 0.88,0.61 0.7,1a26.79,26.79 0 0 0 -1.31,2.53a51.19,51.19 0 0 0 -3,7.95a32.57,32.57 0 0 0 -2,9.36c0,1.57 0.35,2.36 1.14,2.36c1.22,0 3.06,-1.67 5.5,-5.07a42.34,42.34 0 0 0 5.16,-9.36c0.61,-3.05 1.22,-6.29 2.19,-9.7l0.08,-0.08l0.18,-0.18c0.08,-0.09 0.08,-0.09 0.17,-0.09l0.09,-0.17c0.44,-0.26 0.44,-0.61 2.1,0.35c0.87,0.52 1.31,1 1.31,1.57l0,0.53c0,0.43 -0.09,1 -0.18,2c-0.17,3.93 -1.48,11.27 -3.93,21.93c-0.35,1.75 -0.7,3.24 -1.05,4.55a18.31,18.31 0 0 1 4.11,-0.53a5.11,5.11 0 0 1 3.67,1.05a1.65,1.65 0 0 1 0.61,1.23l0.02,-0.13zm-14.7,4.32a25.79,25.79 0 0 0 -8.83,5.77c-3.93,4 -5.85,6.91 -5.85,8.74c0,0.35 0.08,0.53 0.26,0.61a1.82,1.82 0 0 0 1.05,0.27c1.48,0 3.23,-0.79 5.07,-2.45a31.53,31.53 0 0 0 6.64,-9.35c0.63,-1.44 1.24,-2.58 1.68,-3.72l-0.02,0.13z" class="cls-2"/>
   <text transform="matrix(2.097018988468632,0,0,1.9457115939755942,-67.7375226909411,-1.1809618616453725) " font-weight="bold" xml:space="preserve" text-anchor="middle" font-family="Monospace" font-size="24" id="svg_3" y="16.21869" x="88.565058" stroke-linecap="null" stroke-linejoin="null" stroke-dasharray="null" stroke-width="0" fill="#000000">Demo</text>
  </g>
 </g>
</svg>