<svg xmlns="http://www.w3.org/2000/svg" viewBox="0 0 314.15 60.32"><defs><style>.cls-1{fill:#1f3364;}.cls-2{fill:#d4d3d3;}.cls-3{fill:#0092d3;}</style></defs><title>slideshow_mysupport</title><g id="die_line" data-name="die line"><path class="cls-1" d="M2753.88,2033.87V2006h20.18v3.3h-16.49v8.55H2773v3.27h-15.45v9.51h17.14v3.29Z" transform="translate(-2684.1 -2005.48)"/><path class="cls-1" d="M2779.78,2033.87V2006h3.79l14.66,21.92V2006h3.54v27.92H2798l-14.66-21.94v21.94Z" transform="translate(-2684.1 -2005.48)"/><path class="cls-1" d="M2808.09,2033.87V2006h3.7v11.47h14.51V2006H2830v27.92h-3.69v-13.16h-14.51v13.16Z" transform="translate(-2684.1 -2005.48)"/><path class="cls-1" d="M2836,2033.87V2006h5.56l6.61,19.77c.61,1.84,1.05,3.22,1.33,4.13.32-1,.81-2.5,1.49-4.47l6.68-19.43h5v27.92h-3.56v-23.36l-8.11,23.36h-3.34l-8.07-23.76v23.76Z" transform="translate(-2684.1 -2005.48)"/><path class="cls-1" d="M2868.71,2033.87V2006h20.18v3.3H2872.4v8.55h15.44v3.27H2872.4v9.51h17.14v3.29Z" transform="translate(-2684.1 -2005.48)"/><path class="cls-1" d="M2894.64,2033.87V2006h10.53a25.12,25.12,0,0,1,4.25.27,8.35,8.35,0,0,1,3.45,1.31,6.79,6.79,0,0,1,2.23,2.69,8.49,8.49,0,0,1,.85,3.81,8.6,8.6,0,0,1-2.26,6q-2.27,2.46-8.19,2.46h-7.16v11.35Zm3.7-14.64h7.21q3.59,0,5.09-1.34a4.73,4.73,0,0,0,1.5-3.75,5.06,5.06,0,0,0-.88-3,4.11,4.11,0,0,0-2.33-1.64,15.54,15.54,0,0,0-3.45-.25h-7.14Z" transform="translate(-2684.1 -2005.48)"/><path class="cls-1" d="M2919.49,2030.58h6.1a15.26,15.26,0,0,1-4.27-18.61,11.78,11.78,0,0,1,4.31-4.75,12.33,12.33,0,0,1,6.68-1.74,12,12,0,0,1,6.45,1.6,12.18,12.18,0,0,1,4.24,4.59,14.36,14.36,0,0,1,1.67,7.1,14.86,14.86,0,0,1-5.79,11.81H2945v3.29h-10.85v-3.08q6.78-3.16,6.78-11.45a12,12,0,0,0-2.39-7.68,8,8,0,0,0-12.52,0,11.75,11.75,0,0,0-2.36,7.47q0,8.4,6.74,11.64v3.08h-10.88Z" transform="translate(-2684.1 -2005.48)"/><path class="cls-1" d="M2968.61,2006v3.3h-15l9.52,10.13-9.52,11.2h15.77v3.29h-19.77V2030l9.12-10.64-9.12-9.71V2006Z" transform="translate(-2684.1 -2005.48)"/><path class="cls-1" d="M2974,2033.87V2006h3.7v11.47h14.51V2006h3.69v27.92h-3.69v-13.16h-14.51v13.16Z" transform="translate(-2684.1 -2005.48)"/><rect class="cls-2" y="39.71" width="314.15" height="5.32"/><path class="cls-3" d="M2724,2015.79a36.15,36.15,0,0,1-.81,7.21c-1.71,7.29-2.34,12-2,14,.09.45-.18.72-.9.9a2.91,2.91,0,0,1-1.81.18,2.1,2.1,0,0,1-1.8-2.52c.81-5.77,1.53-10,2.16-12.79a39.26,39.26,0,0,0,.81-6.13c0-1.53-.27-2.43-.81-2.89s-2,1.18-4.41,4.6c-2.52,3.69-4.15,6.67-4.78,9.46a68.62,68.62,0,0,0-1.44,7.3c0,.09-.09.72-.09,1.71,0,.63-.09,1.08-.36,1.26a3.53,3.53,0,0,1-1.17.18q-3.51,0-3.24-3.51c.72-3.33,1.44-6.13,1.89-8.56a29,29,0,0,0,.54-6.58c0-3.87-.27-5.86-.81-5.94-1,.18-2.25,1.8-4,4.86-1.35,2.43-2.25,4.6-3.24,6.76-1.35,4.77-2.25,8.47-2.88,11.26a3.83,3.83,0,0,1-.18,1c-.18.45-.54.63-1.17.63a4.44,4.44,0,0,1-1.18-.09,2.54,2.54,0,0,1-2.07-2.43c0-.27,0-.45.09-.54l3.16-12.25a18.93,18.93,0,0,0,.63-6.13c0-2.07-.27-3.06-.9-3.06a10.12,10.12,0,0,0-3,4.59,21.92,21.92,0,0,0-.27,2.7c0,.45-.63.72-2,.72-.81,0-1.35-.18-1.62-.63-.54-.63-.63-1.71-.18-3.15a16.11,16.11,0,0,1,3.15-5.59c1.89-2.25,3.6-3.33,5.32-3.06,1.89.27,2.88,2.7,3.06,7.12a18,18,0,0,1,3.15-4.51c2.08-2.16,3.88-3.33,5.41-3.42,2.61,0,3.78,3.24,3.6,9.64.45-1.17,1.81-2.88,4.06-5.23,2.7-2.88,4.86-4.32,6.49-4.23C2722.78,2008.76,2724,2011.19,2724,2015.79Z" transform="translate(-2684.1 -2005.48)"/><path class="cls-3" d="M2749.72,2042.46c0,.81-.27,1.17-.9,1.17a24.37,24.37,0,0,0-8.92,1.17,76.28,76.28,0,0,1-3.34,7.75c-4.5,8.83-9.82,13.24-16,13.24a6.68,6.68,0,0,1-4.32-1.17c-.63-.36-.9-1.08-.9-2.25q0-5.4,7.84-13,4.46-4.2,13.24-7.3c.36-1.35,1.35-5.14,2.79-11.9-3.69,5.14-7.11,7.75-10.09,7.75a6.15,6.15,0,0,1-3-.81c-1.71-1-2.61-3-2.61-5.85,0-4.69,2-11.09,5.94-19.29.72-1.53,1.63-2.25,2.71-2.07a4.06,4.06,0,0,1,1.53.45c.63.27.9.63.72,1a26.59,26.59,0,0,0-1.35,2.62,52.83,52.83,0,0,0-3.07,8.19,33.62,33.62,0,0,0-2.07,9.65c0,1.62.36,2.43,1.17,2.43,1.26,0,3.16-1.71,5.68-5.23a43.68,43.68,0,0,0,5.32-9.64c.63-3.15,1.26-6.49,2.25-10l.09-.09.18-.18c.09-.09.09-.09.18-.09l.09-.18c.45-.27.45-.63,2.16.36q1.35.81,1.35,1.62v.54c0,.45-.09,1.08-.18,2.07-.18,4.06-1.53,11.63-4,22.62-.36,1.8-.72,3.33-1.08,4.69a18.78,18.78,0,0,1,4.23-.54c1.8,0,3.07.36,3.79,1.08a1.7,1.7,0,0,1,.63,1.26Zm-15.14,4.32a26.49,26.49,0,0,0-9.1,6c-4.06,4.14-6,7.12-6,9,0,.36.09.54.27.63a1.92,1.92,0,0,0,1.08.27c1.54,0,3.34-.81,5.23-2.52a32.56,32.56,0,0,0,6.85-9.64C2733.5,2049.13,2734.13,2048,2734.58,2046.78Z" transform="translate(-2684.1 -2005.48)"/></g></svg>